<?xml version="1.0" encoding="UTF-8" standalone="no"?>
<!-- Created with Inkscape (http://www.inkscape.org/) -->

<svg
   width="1024"
   height="1024"
   viewBox="0 0 270.93333 270.93333"
   version="1.1"
   id="svg1"
   xml:space="preserve"
   inkscape:version="1.3.2 (091e20e, 2023-11-25)"
   sodipodi:docname="icon.svg"
   inkscape:export-filename="icon.png"
   inkscape:export-xdpi="96.000008"
   inkscape:export-ydpi="96.000008"
   xmlns:inkscape="http://www.inkscape.org/namespaces/inkscape"
   xmlns:sodipodi="http://sodipodi.sourceforge.net/DTD/sodipodi-0.dtd"
   xmlns:xlink="http://www.w3.org/1999/xlink"
   xmlns="http://www.w3.org/2000/svg"
   xmlns:svg="http://www.w3.org/2000/svg"><sodipodi:namedview
     id="namedview1"
     pagecolor="#ffffff"
     bordercolor="#000000"
     borderopacity="0.25"
     inkscape:showpageshadow="2"
     inkscape:pageopacity="0.0"
     inkscape:pagecheckerboard="0"
     inkscape:deskcolor="#d1d1d1"
     inkscape:document-units="px"
     inkscape:zoom="0.32117007"
     inkscape:cx="186.81691"
     inkscape:cy="440.57655"
     inkscape:window-width="1440"
     inkscape:window-height="768"
     inkscape:window-x="0"
     inkscape:window-y="25"
     inkscape:window-maximized="1"
     inkscape:current-layer="layer1" /><defs
     id="defs1"><linearGradient
       id="linearGradient1"
       inkscape:collect="always"><stop
         style="stop-color:#000092;stop-opacity:1;"
         offset="0"
         id="stop1" /><stop
         style="stop-color:#0000c6;stop-opacity:1;"
         offset="1"
         id="stop2" /></linearGradient><filter
       inkscape:collect="always"
       style="color-interpolation-filters:sRGB"
       id="filter5"
       x="-0.30227599"
       y="-0.22557857"
       width="1.604552"
       height="1.4511571"><feGaussianBlur
         inkscape:collect="always"
         stdDeviation="2.7987721"
         id="feGaussianBlur5" /></filter><linearGradient
       inkscape:collect="always"
       xlink:href="#linearGradient1"
       id="linearGradient2"
       x1="26.61685"
       y1="241.54793"
       x2="247.53671"
       y2="41.256119"
       gradientUnits="userSpaceOnUse" /><filter
       inkscape:collect="always"
       style="color-interpolation-filters:sRGB"
       id="filter10"
       x="-0.046335963"
       y="-0.034578996"
       width="1.0926719"
       height="1.069158"><feGaussianBlur
         inkscape:collect="always"
         stdDeviation="0.42902448"
         id="feGaussianBlur10" /></filter></defs><g
     inkscape:label="Ebene 1"
     inkscape:groupmode="layer"
     id="layer1"><rect
       style="fill:url(#linearGradient2);stroke:none;stroke-width:0.497999;fill-opacity:1"
       id="rect1"
       width="270.93332"
       height="270.93332"
       x="-2.2480408e-16"
       y="0" /><g
       id="g5"
       transform="matrix(4.7836602,0,0,4.7836602,-428.70742,-473.99953)"
       style="fill:#ffffff;fill-opacity:0.388889;stroke-width:0.209045;filter:url(#filter5)"><path
         d="m 106.82698,113.18408 c 0,-0.3683 0.29845,-0.66675 0.66649,-0.66675 h 20.88832 c 0.3683,0 0.66675,0.29845 0.66675,0.66675 0,0.3683 -0.29845,0.66675 -0.66675,0.66675 h -20.88832 c -0.36804,0 -0.66649,-0.29845 -0.66649,-0.66675 z"
         id="path1"
         inkscape:connector-curvature="0"
         style="clip-rule:evenodd;fill:#ffffff;fill-opacity:0.388889;fill-rule:evenodd;stroke-width:0.0553098" /><path
         d="m 106.82698,115.85055 c 0,-0.36804 0.29845,-0.66649 0.66649,-0.66649 h 20.88832 c 0.3683,0 0.66675,0.29845 0.66675,0.66649 0,0.3683 -0.29845,0.66675 -0.66675,0.66675 h -20.88832 c -0.36804,0 -0.66649,-0.29845 -0.66649,-0.66675 z"
         id="path2"
         inkscape:connector-curvature="0"
         style="clip-rule:evenodd;fill:#ffffff;fill-opacity:0.388889;fill-rule:evenodd;stroke-width:0.0553098" /><path
         d="m 106.82698,138.96111 c 0,-0.36804 0.29845,-0.66649 0.66649,-0.66649 h 20.88832 c 0.3683,0 0.66675,0.29845 0.66675,0.66649 0,0.3683 -0.29845,0.66675 -0.66675,0.66675 h -20.88832 c -0.36804,0 -0.66649,-0.29845 -0.66649,-0.66675 z"
         id="path3"
         inkscape:connector-curvature="0"
         style="clip-rule:evenodd;fill:#ffffff;fill-opacity:0.388889;fill-rule:evenodd;stroke-width:0.0553098" /><path
         d="m 107.49347,117.85053 c -0.36804,0 -0.66649,0.29845 -0.66649,0.66675 0,0.3683 0.29845,0.66675 0.66649,0.66675 h 11.60542 l -12.12824,16.68754 c -0.0249,0.0339 -0.046,0.0693 -0.0635,0.10557 -0.0511,0.0944 -0.0802,0.20267 -0.0802,0.3175 0,0.36803 0.29845,0.66648 0.66649,0.66648 h 20.88832 c 0.3683,0 0.66675,-0.29845 0.66675,-0.66648 0,-0.3683 -0.29845,-0.66675 -0.66675,-0.66675 h -11.64325 l 12.16051,-16.69019 c 0.0934,-0.11456 0.14949,-0.26087 0.14949,-0.42042 0,-0.3683 -0.29845,-0.66675 -0.66675,-0.66675 z m 19.71569,1.3335 h -2.43708 l -12.05441,16.44386 h 2.36802 z m -4.09178,0 h -2.35426 l -11.96631,16.44386 h 2.23414 z"
         id="path4"
         inkscape:connector-curvature="0"
         style="clip-rule:evenodd;fill:#ffffff;fill-opacity:0.388889;fill-rule:evenodd;stroke-width:0.0553098" /><path
         d="m 106.82698,141.62784 c 0,-0.3683 0.29845,-0.66675 0.66649,-0.66675 h 20.88832 c 0.3683,0 0.66675,0.29845 0.66675,0.66675 0,0.36804 -0.29845,0.66649 -0.66675,0.66649 h -20.88832 c -0.36804,0 -0.66649,-0.29845 -0.66649,-0.66649 z"
         id="path5"
         inkscape:connector-curvature="0"
         style="clip-rule:evenodd;fill:#ffffff;fill-opacity:0.388889;fill-rule:evenodd;stroke-width:0.0553098" /></g><g
       id="g10"
       transform="matrix(4.7836602,0,0,4.7836602,-426.06157,-471.35368)"
       style="fill:#000000;fill-opacity:1;stroke-width:0.209045;filter:url(#filter10);opacity:0.20166667"><path
         d="m 106.82698,113.18408 c 0,-0.3683 0.29845,-0.66675 0.66649,-0.66675 h 20.88832 c 0.3683,0 0.66675,0.29845 0.66675,0.66675 0,0.3683 -0.29845,0.66675 -0.66675,0.66675 h -20.88832 c -0.36804,0 -0.66649,-0.29845 -0.66649,-0.66675 z"
         id="path6"
         inkscape:connector-curvature="0"
         style="clip-rule:evenodd;fill:#000000;fill-opacity:1;fill-rule:evenodd;stroke-width:0.0553098" /><path
         d="m 106.82698,115.85055 c 0,-0.36804 0.29845,-0.66649 0.66649,-0.66649 h 20.88832 c 0.3683,0 0.66675,0.29845 0.66675,0.66649 0,0.3683 -0.29845,0.66675 -0.66675,0.66675 h -20.88832 c -0.36804,0 -0.66649,-0.29845 -0.66649,-0.66675 z"
         id="path7"
         inkscape:connector-curvature="0"
         style="clip-rule:evenodd;fill:#000000;fill-opacity:1;fill-rule:evenodd;stroke-width:0.0553098" /><path
         d="m 106.82698,138.96111 c 0,-0.36804 0.29845,-0.66649 0.66649,-0.66649 h 20.88832 c 0.3683,0 0.66675,0.29845 0.66675,0.66649 0,0.3683 -0.29845,0.66675 -0.66675,0.66675 h -20.88832 c -0.36804,0 -0.66649,-0.29845 -0.66649,-0.66675 z"
         id="path8"
         inkscape:connector-curvature="0"
         style="clip-rule:evenodd;fill:#000000;fill-opacity:1;fill-rule:evenodd;stroke-width:0.0553098" /><path
         d="m 107.49347,117.85053 c -0.36804,0 -0.66649,0.29845 -0.66649,0.66675 0,0.3683 0.29845,0.66675 0.66649,0.66675 h 11.60542 l -12.12824,16.68754 c -0.0249,0.0339 -0.046,0.0693 -0.0635,0.10557 -0.0511,0.0944 -0.0802,0.20267 -0.0802,0.3175 0,0.36803 0.29845,0.66648 0.66649,0.66648 h 20.88832 c 0.3683,0 0.66675,-0.29845 0.66675,-0.66648 0,-0.3683 -0.29845,-0.66675 -0.66675,-0.66675 h -11.64325 l 12.16051,-16.69019 c 0.0934,-0.11456 0.14949,-0.26087 0.14949,-0.42042 0,-0.3683 -0.29845,-0.66675 -0.66675,-0.66675 z m 19.71569,1.3335 h -2.43708 l -12.05441,16.44386 h 2.36802 z m -4.09178,0 h -2.35426 l -11.96631,16.44386 h 2.23414 z"
         id="path9"
         inkscape:connector-curvature="0"
         style="clip-rule:evenodd;fill:#000000;fill-opacity:1;fill-rule:evenodd;stroke-width:0.0553098" /><path
         d="m 106.82698,141.62784 c 0,-0.3683 0.29845,-0.66675 0.66649,-0.66675 h 20.88832 c 0.3683,0 0.66675,0.29845 0.66675,0.66675 0,0.36804 -0.29845,0.66649 -0.66675,0.66649 h -20.88832 c -0.36804,0 -0.66649,-0.29845 -0.66649,-0.66649 z"
         id="path10"
         inkscape:connector-curvature="0"
         style="clip-rule:evenodd;fill:#000000;fill-opacity:1;fill-rule:evenodd;stroke-width:0.0553098" /></g><g
       id="g1"
       transform="matrix(4.7836602,0,0,4.7836602,-428.70742,-473.99953)"
       style="fill:#ffffff;fill-opacity:1;stroke-width:0.209045"><path
         d="m 106.82698,113.18408 c 0,-0.3683 0.29845,-0.66675 0.66649,-0.66675 h 20.88832 c 0.3683,0 0.66675,0.29845 0.66675,0.66675 0,0.3683 -0.29845,0.66675 -0.66675,0.66675 h -20.88832 c -0.36804,0 -0.66649,-0.29845 -0.66649,-0.66675 z"
         id="path28"
         inkscape:connector-curvature="0"
         style="clip-rule:evenodd;fill:#ffffff;fill-opacity:1;fill-rule:evenodd;stroke-width:0.0553098" /><path
         d="m 106.82698,115.85055 c 0,-0.36804 0.29845,-0.66649 0.66649,-0.66649 h 20.88832 c 0.3683,0 0.66675,0.29845 0.66675,0.66649 0,0.3683 -0.29845,0.66675 -0.66675,0.66675 h -20.88832 c -0.36804,0 -0.66649,-0.29845 -0.66649,-0.66675 z"
         id="path30"
         inkscape:connector-curvature="0"
         style="clip-rule:evenodd;fill:#ffffff;fill-opacity:1;fill-rule:evenodd;stroke-width:0.0553098" /><path
         d="m 106.82698,138.96111 c 0,-0.36804 0.29845,-0.66649 0.66649,-0.66649 h 20.88832 c 0.3683,0 0.66675,0.29845 0.66675,0.66649 0,0.3683 -0.29845,0.66675 -0.66675,0.66675 h -20.88832 c -0.36804,0 -0.66649,-0.29845 -0.66649,-0.66675 z"
         id="path32"
         inkscape:connector-curvature="0"
         style="clip-rule:evenodd;fill:#ffffff;fill-opacity:1;fill-rule:evenodd;stroke-width:0.0553098" /><path
         d="m 107.49347,117.85053 c -0.36804,0 -0.66649,0.29845 -0.66649,0.66675 0,0.3683 0.29845,0.66675 0.66649,0.66675 h 11.60542 l -12.12824,16.68754 c -0.0249,0.0339 -0.046,0.0693 -0.0635,0.10557 -0.0511,0.0944 -0.0802,0.20267 -0.0802,0.3175 0,0.36803 0.29845,0.66648 0.66649,0.66648 h 20.88832 c 0.3683,0 0.66675,-0.29845 0.66675,-0.66648 0,-0.3683 -0.29845,-0.66675 -0.66675,-0.66675 h -11.64325 l 12.16051,-16.69019 c 0.0934,-0.11456 0.14949,-0.26087 0.14949,-0.42042 0,-0.3683 -0.29845,-0.66675 -0.66675,-0.66675 z m 19.71569,1.3335 h -2.43708 l -12.05441,16.44386 h 2.36802 z m -4.09178,0 h -2.35426 l -11.96631,16.44386 h 2.23414 z"
         id="path34"
         inkscape:connector-curvature="0"
         style="clip-rule:evenodd;fill:#ffffff;fill-opacity:1;fill-rule:evenodd;stroke-width:0.0553098" /><path
         d="m 106.82698,141.62784 c 0,-0.3683 0.29845,-0.66675 0.66649,-0.66675 h 20.88832 c 0.3683,0 0.66675,0.29845 0.66675,0.66675 0,0.36804 -0.29845,0.66649 -0.66675,0.66649 h -20.88832 c -0.36804,0 -0.66649,-0.29845 -0.66649,-0.66649 z"
         id="path36"
         inkscape:connector-curvature="0"
         style="clip-rule:evenodd;fill:#ffffff;fill-opacity:1;fill-rule:evenodd;stroke-width:0.0553098" /></g></g></svg>
