<?xml version="1.0" encoding="UTF-8" standalone="no"?>
<!-- Created with Inkscape (http://www.inkscape.org/) -->

<svg
   width="1284"
   height="2778"
   viewBox="0 0 339.725 735.01249"
   version="1.1"
   id="svg1"
   xml:space="preserve"
   inkscape:version="1.3.2 (091e20e, 2023-11-25)"
   sodipodi:docname="splash.svg"
   inkscape:export-filename="splash.png"
   inkscape:export-xdpi="96"
   inkscape:export-ydpi="96"
   xmlns:inkscape="http://www.inkscape.org/namespaces/inkscape"
   xmlns:sodipodi="http://sodipodi.sourceforge.net/DTD/sodipodi-0.dtd"
   xmlns="http://www.w3.org/2000/svg"
   xmlns:svg="http://www.w3.org/2000/svg"><sodipodi:namedview
     id="namedview1"
     pagecolor="#ffffff"
     bordercolor="#000000"
     borderopacity="0.25"
     inkscape:showpageshadow="2"
     inkscape:pageopacity="0.0"
     inkscape:pagecheckerboard="0"
     inkscape:deskcolor="#d1d1d1"
     inkscape:document-units="px"
     inkscape:zoom="0.39996607"
     inkscape:cx="631.30355"
     inkscape:cy="1468.8746"
     inkscape:window-width="1440"
     inkscape:window-height="768"
     inkscape:window-x="0"
     inkscape:window-y="25"
     inkscape:window-maximized="1"
     inkscape:current-layer="layer1" /><defs
     id="defs1"><filter
       inkscape:collect="always"
       style="color-interpolation-filters:sRGB"
       id="filter5"
       x="-0.81118159"
       y="-0.60535798"
       width="2.6223632"
       height="2.210716"><feGaussianBlur
         inkscape:collect="always"
         stdDeviation="7.5107269"
         id="feGaussianBlur5" /></filter></defs><g
     inkscape:label="Ebene 1"
     inkscape:groupmode="layer"
     id="layer1"><rect
       style="fill:#00008f;fill-opacity:1;stroke:none;stroke-width:0.498"
       id="rect1"
       width="339.72501"
       height="735.01245"
       x="-2.8188325e-16"
       y="0" /><g
       id="g5"
       transform="matrix(1.546749,0,0,1.546749,-12.557598,170.44141)"
       style="fill:#ffffff;fill-opacity:0.86430681;stroke-width:0.646516;filter:url(#filter5)"><path
         d="m 106.82698,113.18408 c 0,-0.3683 0.29845,-0.66675 0.66649,-0.66675 h 20.88832 c 0.3683,0 0.66675,0.29845 0.66675,0.66675 0,0.3683 -0.29845,0.66675 -0.66675,0.66675 h -20.88832 c -0.36804,0 -0.66649,-0.29845 -0.66649,-0.66675 z"
         id="path1"
         inkscape:connector-curvature="0"
         style="clip-rule:evenodd;fill:#ffffff;fill-opacity:0.86430681;fill-rule:evenodd;stroke-width:0.171058" /><path
         d="m 106.82698,115.85055 c 0,-0.36804 0.29845,-0.66649 0.66649,-0.66649 h 20.88832 c 0.3683,0 0.66675,0.29845 0.66675,0.66649 0,0.3683 -0.29845,0.66675 -0.66675,0.66675 h -20.88832 c -0.36804,0 -0.66649,-0.29845 -0.66649,-0.66675 z"
         id="path2"
         inkscape:connector-curvature="0"
         style="clip-rule:evenodd;fill:#ffffff;fill-opacity:0.86430681;fill-rule:evenodd;stroke-width:0.171058" /><path
         d="m 106.82698,138.96111 c 0,-0.36804 0.29845,-0.66649 0.66649,-0.66649 h 20.88832 c 0.3683,0 0.66675,0.29845 0.66675,0.66649 0,0.3683 -0.29845,0.66675 -0.66675,0.66675 h -20.88832 c -0.36804,0 -0.66649,-0.29845 -0.66649,-0.66675 z"
         id="path3"
         inkscape:connector-curvature="0"
         style="clip-rule:evenodd;fill:#ffffff;fill-opacity:0.86430681;fill-rule:evenodd;stroke-width:0.171058" /><path
         d="m 107.49347,117.85053 c -0.36804,0 -0.66649,0.29845 -0.66649,0.66675 0,0.3683 0.29845,0.66675 0.66649,0.66675 h 11.60542 l -12.12824,16.68754 c -0.0249,0.0339 -0.046,0.0693 -0.0635,0.10557 -0.0511,0.0944 -0.0802,0.20267 -0.0802,0.3175 0,0.36803 0.29845,0.66648 0.66649,0.66648 h 20.88832 c 0.3683,0 0.66675,-0.29845 0.66675,-0.66648 0,-0.3683 -0.29845,-0.66675 -0.66675,-0.66675 h -11.64325 l 12.16051,-16.69019 c 0.0934,-0.11456 0.14949,-0.26087 0.14949,-0.42042 0,-0.3683 -0.29845,-0.66675 -0.66675,-0.66675 z m 19.71569,1.3335 h -2.43708 l -12.05441,16.44386 h 2.36802 z m -4.09178,0 h -2.35426 l -11.96631,16.44386 h 2.23414 z"
         id="path4"
         inkscape:connector-curvature="0"
         style="clip-rule:evenodd;fill:#ffffff;fill-opacity:0.86430681;fill-rule:evenodd;stroke-width:0.171058" /><path
         d="m 106.82698,141.62784 c 0,-0.3683 0.29845,-0.66675 0.66649,-0.66675 h 20.88832 c 0.3683,0 0.66675,0.29845 0.66675,0.66675 0,0.36804 -0.29845,0.66649 -0.66675,0.66649 h -20.88832 c -0.36804,0 -0.66649,-0.29845 -0.66649,-0.66649 z"
         id="path5"
         inkscape:connector-curvature="0"
         style="clip-rule:evenodd;fill:#ffffff;fill-opacity:0.86430681;fill-rule:evenodd;stroke-width:0.171058" /></g><g
       id="g1"
       transform="matrix(1.546749,0,0,1.546749,-12.557598,170.44141)"
       style="fill:#ffffff;fill-opacity:1;stroke-width:0.646516"><path
         d="m 106.82698,113.18408 c 0,-0.3683 0.29845,-0.66675 0.66649,-0.66675 h 20.88832 c 0.3683,0 0.66675,0.29845 0.66675,0.66675 0,0.3683 -0.29845,0.66675 -0.66675,0.66675 h -20.88832 c -0.36804,0 -0.66649,-0.29845 -0.66649,-0.66675 z"
         id="path28"
         inkscape:connector-curvature="0"
         style="clip-rule:evenodd;fill:#ffffff;fill-opacity:1;fill-rule:evenodd;stroke-width:0.171058" /><path
         d="m 106.82698,115.85055 c 0,-0.36804 0.29845,-0.66649 0.66649,-0.66649 h 20.88832 c 0.3683,0 0.66675,0.29845 0.66675,0.66649 0,0.3683 -0.29845,0.66675 -0.66675,0.66675 h -20.88832 c -0.36804,0 -0.66649,-0.29845 -0.66649,-0.66675 z"
         id="path30"
         inkscape:connector-curvature="0"
         style="clip-rule:evenodd;fill:#ffffff;fill-opacity:1;fill-rule:evenodd;stroke-width:0.171058" /><path
         d="m 106.82698,138.96111 c 0,-0.36804 0.29845,-0.66649 0.66649,-0.66649 h 20.88832 c 0.3683,0 0.66675,0.29845 0.66675,0.66649 0,0.3683 -0.29845,0.66675 -0.66675,0.66675 h -20.88832 c -0.36804,0 -0.66649,-0.29845 -0.66649,-0.66675 z"
         id="path32"
         inkscape:connector-curvature="0"
         style="clip-rule:evenodd;fill:#ffffff;fill-opacity:1;fill-rule:evenodd;stroke-width:0.171058" /><path
         d="m 107.49347,117.85053 c -0.36804,0 -0.66649,0.29845 -0.66649,0.66675 0,0.3683 0.29845,0.66675 0.66649,0.66675 h 11.60542 l -12.12824,16.68754 c -0.0249,0.0339 -0.046,0.0693 -0.0635,0.10557 -0.0511,0.0944 -0.0802,0.20267 -0.0802,0.3175 0,0.36803 0.29845,0.66648 0.66649,0.66648 h 20.88832 c 0.3683,0 0.66675,-0.29845 0.66675,-0.66648 0,-0.3683 -0.29845,-0.66675 -0.66675,-0.66675 h -11.64325 l 12.16051,-16.69019 c 0.0934,-0.11456 0.14949,-0.26087 0.14949,-0.42042 0,-0.3683 -0.29845,-0.66675 -0.66675,-0.66675 z m 19.71569,1.3335 h -2.43708 l -12.05441,16.44386 h 2.36802 z m -4.09178,0 h -2.35426 l -11.96631,16.44386 h 2.23414 z"
         id="path34"
         inkscape:connector-curvature="0"
         style="clip-rule:evenodd;fill:#ffffff;fill-opacity:1;fill-rule:evenodd;stroke-width:0.171058" /><path
         d="m 106.82698,141.62784 c 0,-0.3683 0.29845,-0.66675 0.66649,-0.66675 h 20.88832 c 0.3683,0 0.66675,0.29845 0.66675,0.66675 0,0.36804 -0.29845,0.66649 -0.66675,0.66649 h -20.88832 c -0.36804,0 -0.66649,-0.29845 -0.66649,-0.66649 z"
         id="path36"
         inkscape:connector-curvature="0"
         style="clip-rule:evenodd;fill:#ffffff;fill-opacity:1;fill-rule:evenodd;stroke-width:0.171058" /></g></g></svg>
